<?xml version="1.0" standalone="no"?><!DOCTYPE svg PUBLIC "-//W3C//DTD SVG 1.1//EN" "http://www.w3.org/Graphics/SVG/1.1/DTD/svg11.dtd"><svg t="1736035869558" class="icon" viewBox="0 0 1024 1024" version="1.1" xmlns="http://www.w3.org/2000/svg" p-id="20675" xmlns:xlink="http://www.w3.org/1999/xlink" width="200" height="200"><path d="M354.88 136v76.16h37.44V136h-37.44z m14.72 62.72c-2.56-12.16-6.08-25.92-10.88-40.32l15.04-4.8c5.44 16 8.96 29.44 11.84 40.64l-16 4.48z m40.64-62.72v76.16H448V136h-37.76z m19.84 63.68l-14.4-4.8c3.52-8.96 7.68-22.4 12.16-40.64l16 4.48c-5.12 16.32-9.6 29.76-13.76 40.96z m-19.84-63.68v76.16H448V136h-37.76z m19.84 63.68l-14.4-4.8c3.52-8.96 7.68-22.4 12.16-40.64l16 4.48c-5.12 16.32-9.6 29.76-13.76 40.96z m-75.2-63.68v76.16h37.44V136h-37.44z m14.72 62.72c-2.56-12.16-6.08-25.92-10.88-40.32l15.04-4.8c5.44 16 8.96 29.44 11.84 40.64l-16 4.48z m-14.72-62.72v76.16h37.44V136h-37.44z m14.72 62.72c-2.56-12.16-6.08-25.92-10.88-40.32l15.04-4.8c5.44 16 8.96 29.44 11.84 40.64l-16 4.48z m40.64-62.72v76.16H448V136h-37.76z m19.84 63.68l-14.4-4.8c3.52-8.96 7.68-22.4 12.16-40.64l16 4.48c-5.12 16.32-9.6 29.76-13.76 40.96z m-19.84-63.68v76.16H448V136h-37.76z m19.84 63.68l-14.4-4.8c3.52-8.96 7.68-22.4 12.16-40.64l16 4.48c-5.12 16.32-9.6 29.76-13.76 40.96z m-75.2-63.68v76.16h37.44V136h-37.44z m14.72 62.72c-2.56-12.16-6.08-25.92-10.88-40.32l15.04-4.8c5.44 16 8.96 29.44 11.84 40.64l-16 4.48z m-14.72-62.72v76.16h37.44V136h-37.44z m14.72 62.72c-2.56-12.16-6.08-25.92-10.88-40.32l15.04-4.8c5.44 16 8.96 29.44 11.84 40.64l-16 4.48z m40.64-62.72v76.16H448V136h-37.76z m19.84 63.68l-14.4-4.8c3.52-8.96 7.68-22.4 12.16-40.64l16 4.48c-5.12 16.32-9.6 29.76-13.76 40.96z m-19.84-63.68v76.16H448V136h-37.76z m19.84 63.68l-14.4-4.8c3.52-8.96 7.68-22.4 12.16-40.64l16 4.48c-5.12 16.32-9.6 29.76-13.76 40.96z m-75.2 12.48h37.44V136h-37.44v76.16z m18.88-58.56c5.44 16 8.96 29.44 11.84 40.64l-16 4.48c-2.56-12.16-6.08-25.92-10.88-40.32l15.04-4.8zM675.84 21.44H258.88c-8.64 0-15.36 6.72-15.36 14.4L243.84 992c152-223.68 279.68-227.2 447.04-0.32l0.64-955.84c0-7.68-7.04-14.4-15.68-14.4z m-114.24 101.44c16 12.48 28.48 23.04 37.44 32l-15.68 16.32c-9.28-10.24-20.8-21.76-34.88-34.56l13.12-13.76z m-227.2 146.56v-16h57.92v-25.28h-37.44v7.68h-18.24V120h129.6v115.84H448v-7.68h-37.76v24.96h56.64v16h-56.64v24.32l62.08-3.84c-0.32 5.44-0.32 11.2 0.32 17.28-48 3.52-95.36 7.04-142.08 10.88l-3.2-19.52c21.76-1.28 43.52-1.92 65.28-3.2v-25.6h-58.24z m80.64 250.24l-19.84 16.64a809.6 809.6 0 0 0-46.4-53.44l17.28-14.4c18.56 18.56 34.88 35.84 48.96 51.2z m-46.72-185.92l16-4.8c5.44 16 10.24 31.04 14.08 44.8l-18.56 6.08c-3.52-15.68-7.36-31.36-11.52-46.08z m33.92-6.08l15.68-5.76c5.12 8.32 11.2 21.76 18.56 39.68l-17.92 7.36c-4.16-13.44-9.6-27.2-16.32-41.28z m34.24-8l14.08-8.32c6.72 8.96 13.44 18.88 20.16 30.08l-16 10.24c-3.84-8.64-9.92-19.2-18.24-32z m-93.12 9.6l17.6 5.76c-5.44 17.6-11.84 35.2-19.84 51.84l-18.56-7.36c8-15.68 15.04-32.64 20.8-50.24z m25.6 391.68l-16.96-17.92c6.08-6.4 9.28-15.04 9.28-25.6V579.2h-39.04v-20.8H384v118.72c14.4-11.2 31.68-25.6 51.84-42.56 1.28 8.64 2.56 16.32 4.48 23.36-20.16 15.68-39.36 31.68-57.92 48-5.12 5.12-9.6 9.92-13.44 15.04z m224.64 22.08c-41.28-29.12-69.76-75.52-84.48-139.52-10.56 58.56-40.64 106.88-89.28 144.96-4.48-5.44-10.24-11.52-16.96-18.56 60.16-43.2 90.56-106.88 90.88-190.4 0.64-21.76 0.64-46.08 0.64-73.28h23.68l-0.96 75.2c10.56 88.32 42.56 148.48 95.36 179.84-6.72 7.36-13.12 14.72-18.88 21.76z m0.64-354.56c-30.08-32.64-50.24-74.56-61.44-126.72-8.64 50.24-29.76 93.76-64 130.88a192.64 192.64 0 0 0-16.32-18.56c41.28-40 63.68-95.68 66.56-167.36h-44.8v-19.84h45.12c0.64-19.84 0.96-46.72 0.96-80.96h21.44c0 32.96-0.32 59.84-0.96 80.96h64.96v19.52h-65.28c9.92 72 34.24 125.76 72.32 160.64-7.36 7.04-13.44 14.08-18.56 21.44z m-145.92-252.48h-37.76v76.16h37.76V136z m-18.24 63.68l-14.4-4.8c3.52-8.96 7.68-22.4 12.16-40.64l16 4.48c-5.12 16.32-9.6 29.76-13.76 40.96z m-37.76-63.68h-37.44v76.16h37.44V136z m-22.72 62.72c-2.56-12.16-6.08-25.92-10.88-40.32l15.04-4.8c5.44 16 8.96 29.44 11.84 40.64l-16 4.48z m-14.72-62.72v76.16h37.44V136h-37.44z m14.72 62.72c-2.56-12.16-6.08-25.92-10.88-40.32l15.04-4.8c5.44 16 8.96 29.44 11.84 40.64l-16 4.48z m40.64-62.72v76.16H448V136h-37.76z m19.84 63.68l-14.4-4.8c3.52-8.96 7.68-22.4 12.16-40.64l16 4.48c-5.12 16.32-9.6 29.76-13.76 40.96z m-19.84-63.68v76.16H448V136h-37.76z m19.84 63.68l-14.4-4.8c3.52-8.96 7.68-22.4 12.16-40.64l16 4.48c-5.12 16.32-9.6 29.76-13.76 40.96z m-75.2-63.68v76.16h37.44V136h-37.44z m14.72 62.72c-2.56-12.16-6.08-25.92-10.88-40.32l15.04-4.8c5.44 16 8.96 29.44 11.84 40.64l-16 4.48z m-14.72-62.72v76.16h37.44V136h-37.44z m14.72 62.72c-2.56-12.16-6.08-25.92-10.88-40.32l15.04-4.8c5.44 16 8.96 29.44 11.84 40.64l-16 4.48z m40.64-62.72v76.16H448V136h-37.76z m19.84 63.68l-14.4-4.8c3.52-8.96 7.68-22.4 12.16-40.64l16 4.48c-5.12 16.32-9.6 29.76-13.76 40.96z m-19.84-63.68v76.16H448V136h-37.76z m19.84 63.68l-14.4-4.8c3.52-8.96 7.68-22.4 12.16-40.64l16 4.48c-5.12 16.32-9.6 29.76-13.76 40.96z m-75.2-63.68v76.16h37.44V136h-37.44z m14.72 62.72c-2.56-12.16-6.08-25.92-10.88-40.32l15.04-4.8c5.44 16 8.96 29.44 11.84 40.64l-16 4.48z" fill="#FF6E00" p-id="20676"></path></svg>