<?xml version="1.0" standalone="no"?><!DOCTYPE svg PUBLIC "-//W3C//DTD SVG 1.1//EN" "http://www.w3.org/Graphics/SVG/1.1/DTD/svg11.dtd"><svg t="1736125366653" class="icon" viewBox="0 0 1024 1024" version="1.1" xmlns="http://www.w3.org/2000/svg" p-id="27910" xmlns:xlink="http://www.w3.org/1999/xlink" width="200" height="200"><path d="M200.714 909.725c-31.195 16.61-69.948 4.785-86.557-26.41a63.99 63.99 0 0 1-7.507-30.073V202.635c0-53.011 42.974-95.985 95.985-95.985h618.57c53.011 0 95.985 42.974 95.985 95.985v549.561c0 53.011-42.974 95.985-95.985 95.985H316.302l-115.588 61.544z m1.921-739.085c-17.67 0-31.995 14.325-31.995 31.995v650.607l129.689-69.05h520.876c17.67 0 31.995-14.325 31.995-31.996V202.635c0-17.67-14.325-31.995-31.995-31.995h-618.57z m193.264 244.001l84.026 84.026 148.016-148.016L673.19 395.9 479.925 589.163 350.651 459.889 395.9 414.64z" fill="#AE8D5F" p-id="27911"></path></svg>