<?xml version="1.0" standalone="no"?><!DOCTYPE svg PUBLIC "-//W3C//DTD SVG 1.1//EN" "http://www.w3.org/Graphics/SVG/1.1/DTD/svg11.dtd"><svg t="1735962815870" class="icon" viewBox="0 0 1024 1024" version="1.1" xmlns="http://www.w3.org/2000/svg" p-id="11777" xmlns:xlink="http://www.w3.org/1999/xlink" width="200" height="200"><path d="M442.445283 893.584906v-0.966038l16.422642-0.966038c16.422642 0 33.811321 0.966038 49.267924 5.796227 8.69434 2.898113 18.354717 6.762264 26.083019 11.592452 1.932075 0.966038 5.796226 3.864151 6.762264 5.796227-3.864151 0-6.762264 0.966038-10.626415 0.966038h-10.626415c-28.981132 0-42.50566-0.966038-70.520755-6.762265-1.932075 0-4.830189-0.966038-7.728302-0.966037 0-5.796226 0.966038-9.660377 0.966038-14.490566z m54.098113-807.607548c-27.049057 0.966038-59.89434 5.796226-85.011321 11.592453-6.762264 1.932075-13.524528 2.898113-20.286792 5.796227l-20.286792 6.762264c-15.456604 5.796226-30.913208 11.592453-46.369812 19.320755-2.898113 1.932075-5.796226 2.898113-8.694339 3.864151-5.796226 2.898113-11.592453 5.796226-17.38868 9.660377l-16.422641 9.660377c-16.422642 10.626415-29.94717 20.286792-45.403774 32.845283-11.592453 9.660377-23.184906 20.286792-33.81132 31.879246-0.966038 0.966038-1.932075 1.932075-2.898114 3.864151l-9.660377 9.660377c-8.69434 8.69434-28.015094 34.777358-33.811321 44.437736-8.69434 13.524528-17.388679 27.049057-24.150943 40.573585-16.422642 31.879245-27.049057 58.928302-35.743396 94.671698-6.762264 28.015094-11.592453 61.826415-11.592453 92.739622v24.150944c0 9.660377 0.966038 20.286792 1.932075 29.94717 3.864151 39.607547 14.490566 78.249057 28.981132 114.95849 1.932075 5.796226 4.830189 12.558491 7.728302 18.354717 0.966038 1.932075 0.966038 2.898113 1.932076 4.830189s0.966038 2.898113 1.932075 3.864151c0.966038 2.898113 2.898113 5.796226 3.864151 8.694339 3.864151 8.69434 9.660377 16.422642 14.490566 25.116982l4.830189 7.728301c10.626415 16.422642 20.286792 29.94717 32.845283 45.403774 9.660377 11.592453 20.286792 23.184906 31.879245 33.811321 0.966038 0.966038 1.932075 1.932075 3.864151 2.898113l2.898113 2.898113 28.015095 23.184906c1.932075 1.932075 4.830189 3.864151 7.728301 5.796226 2.898113 1.932075 4.830189 3.864151 7.728302 5.796227l15.456604 10.626415c13.524528 8.69434 27.049057 16.422642 41.539623 23.184905 1.932075 0.966038 2.898113 0.966038 3.864151 1.932076l13.524528 5.796226c2.898113 0.966038 5.796226 2.898113 8.69434 3.864151 32.845283 13.524528 66.656604 22.218868 103.366037 27.049057 14.490566 1.932075 30.913208 2.898113 47.335849 3.864151h25.116982c27.049057-0.966038 59.89434-5.796226 85.01132-11.592453 25.116981-6.762264 44.437736-12.558491 68.58868-23.184906l9.660377-3.864151c1.932075-0.966038 2.898113-0.966038 4.830189-1.932075l29.947169-15.456604c1.932075-0.966038 2.898113-1.932075 3.864151-1.932075 0.966038-0.966038 2.898113-1.932075 3.864151-1.932076 7.728302-4.830189 16.422642-9.660377 24.150944-15.456604 24.150943-17.388679 41.539623-32.845283 62.792453-54.098113L830.792453 792.150943c5.796226-6.762264 10.626415-12.558491 16.422641-19.320754l11.592453-15.456604c0.966038-0.966038 1.932075-2.898113 2.898113-3.864151 0.966038-0.966038 1.932075-1.932075 2.898114-3.864151 4.830189-7.728302 10.626415-16.422642 15.456603-24.150943l13.524529-25.116982c20.286792-40.573585 33.811321-85.011321 39.607547-130.415094 1.932075-14.490566 2.898113-30.913208 3.864151-47.335849v-25.116981-5.796226c0-3.864151-0.966038-7.728302-0.966038-12.558491 0-15.456604-7.728302-56.030189-10.626415-67.622642-2.898113-10.626415-4.830189-20.286792-8.69434-29.947169-5.796226-17.388679-12.558491-34.777358-20.286792-51.2l-20.286793-37.675472c-0.966038-1.932075-1.932075-2.898113-2.898113-3.864151-21.25283-32.845283-38.641509-54.098113-67.622641-83.079245L792.150943 193.207547c-2.898113-2.898113-6.762264-5.796226-10.626415-8.694339-9.660377-7.728302-19.320755-15.456604-29.94717-22.218868-0.966038-0.966038-1.932075-1.932075-3.86415-2.898114-13.524528-8.69434-27.049057-17.388679-40.573585-24.150943l-11.592453-8.69434c-1.932075-0.966038-2.898113-0.966038-4.830189-1.932075-21.25283-10.626415-55.064151-21.25283-77.283019-27.049057-28.015094-6.762264-61.826415-11.592453-92.739622-11.592453h-24.150944z m-53.132075 782.490567v7.728301c4.830189-0.966038 20.286792-0.966038 26.083019-0.966037 13.524528 0 36.709434 3.864151 49.267924 8.694339 1.932075 0.966038 3.864151 0.966038 5.796227 1.932076 9.660377 3.864151 24.150943 12.558491 31.879245 21.25283l3.864151 4.830189c0.966038 0.966038 0.966038 1.932075 1.932075 1.932075 5.796226 0 44.437736-6.762264 47.335849-8.69434-1.932075-2.898113-21.25283-14.490566-26.083019-16.422641-31.879245-15.456604-65.690566-23.184906-104.332075-23.184906h-20.286792l-16.422642 0.966038v1.932076h0.966038z m-3.864151-36.709434c0 1.932075 0 3.864151 0.966038 5.796226 1.932075 13.524528-0.966038 13.524528 6.762264 11.592453 5.796226-0.966038 20.286792-0.966038 25.116981-0.966038 12.558491 0 21.25283 0 33.811321 0.966038 6.762264 0.966038 14.490566 1.932075 21.25283 2.898113 9.660377 1.932075 19.320755 3.864151 28.981132 6.762264 20.286792 6.762264 43.471698 17.388679 59.894339 29.94717l9.660378 8.69434c2.898113 0.966038 27.049057-8.69434 27.049056-8.69434 0-1.932075-5.796226-5.796226-6.762264-6.762264l-1.932075-1.932076-9.660378-7.728302c-5.796226-4.830189-14.490566-9.660377-21.25283-14.490566-10.626415-5.796226-24.150943-12.558491-35.743396-17.388679-4.830189-1.932075-8.69434-2.898113-13.524528-4.830188-9.660377-2.898113-18.354717-4.830189-28.981132-6.762265-4.830189-0.966038-10.626415-1.932075-15.456604-1.932075-6.762264-0.966038-28.981132-1.932075-33.811321-1.932076-4.830189 0.966038-11.592453 0-16.422641 0.966038l-29.94717 5.796227z m302.369811 12.55849c-0.966038-1.932075-9.660377-11.592453-10.626415-12.55849 2.898113-3.864151 28.015094-14.490566 32.845283-16.422642 4.830189-1.932075 19.320755-6.762264 23.184906-6.762264-0.966038 1.932075-2.898113 3.864151-4.830189 4.830189-1.932075 1.932075-3.864151 2.898113-5.796226 4.830188-7.728302 6.762264-14.490566 11.592453-23.184906 18.354717-1.932075 1.932075-3.864151 2.898113-5.796226 4.830189-0.966038 0.966038-1.932075 0.966038-2.898114 1.932075 0 0-0.966038 0.966038-2.898113 0.966038z m-310.098113-48.301887c2.898113-0.966038 23.184906-4.830189 26.083019-4.830188 19.320755-2.898113 27.049057-1.932075 45.403773-1.932076 6.762264 0 16.422642 0.966038 24.150944 1.932076 11.592453 1.932075 25.116981 3.864151 35.743396 6.762264 19.320755 5.796226 32.845283 9.660377 50.233962 18.354717l16.422642 8.694339c9.660377 5.796226 17.388679 10.626415 27.049056 16.422642 1.932075 0.966038 2.898113 1.932075 4.830189 3.864151l14.490566 11.592453c3.864151 2.898113 10.626415 8.69434 13.524528 11.592453 0.966038 0.966038 3.864151 2.898113 3.864151 4.830188l-15.456603 6.762264c-1.932075 0.966038-3.864151 1.932075-5.796227 1.932076l-16.422641-15.456604c-2.898113-2.898113-5.796226-4.830189-8.69434-6.762264-15.456604-12.558491-41.539623-27.049057-59.89434-33.811321-3.864151-0.966038-7.728302-2.898113-11.592452-3.864151-8.69434-2.898113-21.25283-5.796226-30.913208-7.728302-34.777358-5.796226-74.384906-6.762264-108.196226 0.966038-0.966038-2.898113-0.966038-6.762264-1.932076-9.660377l-2.898113-9.660378z m-234.74717-36.709434l2.898113-2.898113c1.932075-2.898113 6.762264-6.762264 8.69434-10.626415 5.796226 3.864151 15.456604 17.388679 18.354717 23.184906 3.864151 7.728302 5.796226 11.592453 8.69434 20.286792l3.86415 13.524528c0 1.932075 0.966038 3.864151 0.966038 4.830189-1.932075 0-10.626415-9.660377-11.592453-10.626415l-0.966037-0.966038-1.932076-0.966037-8.694339-8.69434-2.898114-2.898113c-6.762264-9.660377-12.558491-14.490566-17.388679-24.150944z m522.626415 59.89434l-2.898113-2.898113c-0.966038-0.966038-2.898113-1.932075-2.898113-2.898113 1.932075-1.932075 25.116981-19.320755 26.083019-20.286793 16.422642-10.626415 26.083019-16.422642 44.437736-25.116981 15.456604-6.762264 27.049057-10.626415 43.471698-13.524528 2.898113-0.966038 7.728302-0.966038 9.660377-1.932076-2.898113 3.864151-21.25283 27.049057-26.083019 30.913208-9.660377 9.660377 2.898113 1.932075-27.049056 7.728302-14.490566 2.898113-22.218868 5.796226-34.777359 11.592452-5.796226 2.898113-17.388679 8.69434-22.218868 11.592453-2.898113 1.932075-4.830189 3.864151-7.728302 4.830189z m-305.267924-67.622642l14.490566-1.932075 31.879245-2.898113h33.811321c5.796226 0 29.94717 1.932075 35.743396 2.898113 12.558491 1.932075 25.116981 3.864151 37.675472 6.762264 18.354717 4.830189 25.116981 6.762264 42.50566 12.558491 5.796226 1.932075 10.626415 3.864151 16.422642 6.762264l22.218867 10.626415c10.626415 4.830189 29.94717 19.320755 39.607548 27.049057l2.898113 2.898113c2.898113 2.898113 0.966038 2.898113 5.796226 5.796226 1.932075 0.966038 7.728302 6.762264 8.69434 7.728302l10.626415 11.592453 5.796226 5.796226c0.966038 1.932075 4.830189 4.830189 4.830189 6.762264-7.728302 4.830189-9.660377 7.728302-19.320755 12.558491-2.898113-1.932075-6.762264-6.762264-9.660377-9.660377l-14.490566-12.558491c-1.932075-1.932075-3.864151-2.898113-5.796226-3.864151-31.879245-25.116981-72.45283-45.403774-112.060378-56.030188-9.660377-2.898113-20.286792-4.830189-30.913207-6.762265-38.641509-5.796226-71.486792-3.864151-109.162264 4.830189 0-1.932075-0.966038-1.932075-0.966038-3.864151-1.932075-7.728302-7.728302-21.25283-10.626415-27.049057z m-196.105661-18.354716l4.830189-6.762265c1.932075-1.932075 2.898113-3.864151 4.830189-6.762264 0.966038 0.966038 1.932075 1.932075 3.864151 2.898113 3.864151 2.898113 13.524528 11.592453 16.422641 15.456604 23.184906 27.049057 36.709434 58.928302 44.437736 93.705661l2.898113 22.218867c-11.592453-7.728302-22.218868-14.490566-32.845283-23.184905l-1.932075-1.932076c0-5.796226-0.966038-10.626415-1.932076-15.456603-1.932075-15.456604-8.69434-38.641509-17.388679-51.2-0.966038-1.932075-1.932075-3.864151-2.898113-4.830189-0.966038-1.932075-1.932075-3.864151-3.864151-5.796227l-5.796227-7.728301c-0.966038-0.966038-0.966038-1.932075-1.932075-2.898114-1.932075-1.932075-6.762264-5.796226-8.69434-7.728301z m630.822642 3.86415h-6.762264c-4.830189 0-13.524528 0.966038-18.354717 1.932076-14.490566 1.932075-28.015094 6.762264-41.539623 11.592453-19.320755 7.728302-34.777358 17.388679-51.2 28.015094-6.762264 4.830189-16.422642 11.592453-23.184906 17.388679-1.932075 0.966038-6.762264 4.830189-6.762264 5.796227L685.886792 790.218868c-0.966038-0.966038-1.932075-0.966038-2.898113-1.932076-0.966038-0.966038-1.932075-1.932075-2.898113-1.932075 3.864151-5.796226 28.015094-26.083019 35.743396-30.913208 12.558491-8.69434 21.25283-14.490566 35.743396-22.218867l28.981133-12.558491c3.864151-0.966038 8.69434-2.898113 12.55849-3.864151 25.116981-7.728302 47.335849-9.660377 73.418868-9.660377-0.966038 1.932075-11.592453 19.320755-13.524528 22.218868-0.966038 0.966038-1.932075 2.898113-1.932076 3.864151-0.966038 0.966038-1.932075 2.898113-1.932075 3.86415z m-601.84151-49.267924c4.830189 2.898113 11.592453 10.626415 16.422642 14.490566 5.796226 4.830189 2.898113 2.898113 6.762264 6.762264l8.69434 8.69434c7.728302 8.69434 16.422642 20.286792 23.184905 29.94717l9.660378 16.422641c6.762264 12.558491 17.388679 36.709434 20.286792 50.233962 0.966038 4.830189 2.898113 9.660377 3.864151 14.490566 0.966038 4.830189 1.932075 10.626415 2.898113 15.456604 1.932075 10.626415 1.932075 21.25283 1.932076 32.845283-0.966038 0-0.966038 0-1.932076-0.966038-10.626415-4.830189-17.388679-9.660377-27.049056-15.456603 0-9.660377-0.966038-18.354717-2.898114-26.083019-0.966038-3.864151-1.932075-7.728302-1.932075-11.592453-2.898113-15.456604-7.728302-28.981132-13.524528-43.471698-7.728302-18.354717-21.25283-38.641509-33.811321-52.166038L247.30566 714.867925l-10.626415-7.728302 10.626415-19.320755z m345.84151 57.962264c-1.932075 0-5.796226-0.966038-7.728302-1.932075-2.898113-0.966038-4.830189-0.966038-7.728302-1.932076-12.558491-2.898113-18.354717-4.830189-32.845283-6.762264-4.830189-0.966038-12.558491-1.932075-17.388679-1.932075 2.898113 0 5.796226-0.966038 7.728302-0.966038 2.898113 0 4.830189-0.966038 7.728302-0.966038l14.490566-2.898113c4.830189-0.966038 9.660377-1.932075 13.524528-3.864151 17.388679-5.796226 22.218868-7.728302 37.675472-15.456604l11.592452-5.796226 10.626416-6.762264 0.966037-0.966038c0.966038 0.966038 0 0-1.932075 2.898113l-23.184906 27.049057c-1.932075 1.932075-2.898113 3.864151-4.830189 6.762264l-8.694339 13.524528z m-221.222642-58.928302c0.966038-0.966038 0-0.966038 2.898114 1.932076 0.966038 0.966038 1.932075 0.966038 2.898113 1.932075 9.660377 6.762264 22.218868 14.490566 32.845283 20.286793 5.796226 2.898113 12.558491 5.796226 18.354717 7.728301 10.626415 4.830189 22.218868 7.728302 33.81132 9.660378 1.932075 0 5.796226 0.966038 7.728302 0.966038-17.388679 0-38.641509 1.932075-56.996226 4.830188-1.932075 0-4.830189 0.966038-7.728302 0.966038 0-1.932075-2.898113-4.830189-3.864151-6.762264l-5.796226-9.660378c-4.830189-5.796226-19.320755-27.049057-24.150944-31.879245z m-113.026415-24.150943c0.966038 0 1.932075 0.966038 2.898113 1.932075 0.966038 0.966038 1.932075 0.966038 2.898114 1.932076 1.932075 0.966038 3.864151 2.898113 5.796226 3.864151 1.932075 1.932075 3.864151 2.898113 5.796226 3.864151 0.966038 0.966038 1.932075 0.966038 2.898114 1.932075l11.592452 8.69434c0.966038 0.966038 1.932075 1.932075 2.898114 1.932075 4.830189 4.830189 11.592453 9.660377 16.422641 14.490566 9.660377 9.660377 23.184906 24.150943 30.913208 35.743396l9.660377 15.456604c7.728302 12.558491 15.456604 28.981132 19.320755 41.539623 7.728302 22.218868 12.558491 46.369811 12.55849 69.554717 0 8.69434 0 16.422642-0.966037 25.116981 0 0.966038-0.966038 3.864151-0.966038 4.830189l-25.116981-9.660378c0-13.524528 0-26.083019-1.932076-37.675471-0.966038-9.660377-3.864151-24.150943-5.796226-32.845283-3.864151-12.558491-4.830189-17.388679-9.660377-29.94717-0.966038-2.898113-1.932075-4.830189-2.898114-6.762264-0.966038-1.932075-1.932075-4.830189-2.898113-6.762265l-6.762264-13.524528c-3.864151-6.762264-10.626415-18.354717-14.490566-24.150943-3.864151-5.796226-7.728302-11.592453-12.558491-16.422642-3.864151-4.830189-11.592453-13.524528-15.456603-18.354717L270.490566 686.85283l-2.898113-2.898113-13.524528-11.592453 4.830188-9.660377z m616.332076 28.981132c-4.830189 0-10.626415-0.966038-15.456604-0.966038l-32.845283 1.932076c-19.320755 1.932075-37.675472 7.728302-56.030189 14.490566-1.932075 0.966038-3.864151 1.932075-6.762264 2.898113l-8.69434 3.864151c-0.966038 0.966038-1.932075 0.966038-2.898113 1.932075l-17.388679 8.69434c-7.728302 3.864151-20.286792 12.558491-27.049057 17.388679l-4.830188 3.864151c-1.932075 0.966038-2.898113 2.898113-4.830189 3.864151l-14.490566 11.592453-1.932075 1.932075c-2.898113 1.932075-2.898113 2.898113-5.796227 4.830189l-5.796226 4.830189c-1.932075 1.932075-2.898113 3.864151-3.864151 4.830188l-8.69434-4.830188c-2.898113-1.932075-5.796226-2.898113-8.69434-4.830189 0-0.966038 0.966038-1.932075 1.932076-2.898113 4.830189-5.796226 11.592453-14.490566 16.422641-19.320755l23.184906-23.184906c6.762264-4.830189 12.558491-10.626415 20.286793-15.456603 10.626415-6.762264 27.049057-17.388679 38.641509-22.218868 2.898113-0.966038 4.830189-1.932075 6.762264-2.898113 22.218868-9.660377 49.267925-17.388679 72.45283-19.320755 14.490566-1.932075 28.015094-2.898113 43.471698-2.898113H888.754717c-0.966038 1.932075-5.796226 13.524528-6.762264 15.456603l-6.762264 16.422642zM676.226415 656.90566s0.966038-0.966038 0 0l0.966038-0.966037c4.830189-4.830189 9.660377-11.592453 12.55849-16.422642 7.728302-10.626415 11.592453-18.354717 17.38868-29.94717 4.830189-8.69434 7.728302-18.354717 11.592452-28.981132 0-0.966038 0.966038-4.830189 1.932076-5.796226v6.762264l0.966038 12.558491v3.86415l1.932075 22.218868c0.966038 8.69434 1.932075 5.796226-5.796226 9.660378-1.932075 0.966038-3.864151 2.898113-6.762264 3.864151-6.762264 3.864151-17.388679 10.626415-24.150944 15.456603 0 0-8.69434 6.762264-10.626415 7.728302z m-403.803773-34.777358c0.966038 0 9.660377 5.796226 11.592452 6.762264 6.762264 4.830189 19.320755 13.524528 25.116981 19.320755l20.286793 18.354717c4.830189 4.830189 8.69434 8.69434 13.524528 14.490566l1.932076 1.932075c0.966038 0.966038 1.932075 1.932075 2.898113 3.864151l10.626415 11.592453c3.864151 3.864151 14.490566 18.354717 18.354717 23.184906 0.966038 0.966038 1.932075 1.932075 2.898113 3.864151 0.966038 0.966038 1.932075 1.932075 2.898113 3.864151l9.660378 15.456603c4.830189 8.69434 12.558491 24.150943 16.422641 33.811321 0.966038 1.932075 0.966038 2.898113 1.932076 3.864151l4.830188 14.490566c0.966038 2.898113 1.932075 6.762264 2.898114 9.660377 3.864151 10.626415 6.762264 30.913208 8.694339 41.539623 1.932075 16.422642 1.932075 23.184906 1.932076 38.64151 0 7.728302-0.966038 15.456604-1.932076 22.218867-1.932075 0-18.354717-4.830189-21.25283-5.796226-1.932075-0.966038-4.830189-1.932075-6.762264-1.932075 1.932075-7.728302 1.932075-21.25283 1.932075-28.981133 0-25.116981-4.830189-52.166038-12.55849-76.316981-7.728302-22.218868-20.286792-47.335849-33.811321-66.656603-1.932075-1.932075-2.898113-3.864151-4.830189-6.762265-3.864151-4.830189-5.796226-7.728302-9.660377-12.55849L315.89434 685.886792c-4.830189-4.830189-12.558491-11.592453-17.38868-15.456603-1.932075-1.932075-3.864151-2.898113-6.762264-4.830189-4.830189-3.864151-21.25283-15.456604-26.083019-18.354717l3.864151-12.558491c0-1.932075 2.898113-11.592453 2.898114-12.55849z m622.128301 22.218868l-17.388679-0.966038c-40.573585-0.966038-89.841509 7.728302-126.550943 24.150943l-7.728302 3.864151c-13.524528 5.796226-36.709434 19.320755-48.301887 28.981132-1.932075 1.932075-3.864151 2.898113-5.796226 4.830189-6.762264 4.830189-11.592453 9.660377-17.38868 15.456604-5.796226 4.830189-11.592453 11.592453-16.422641 17.388679-1.932075 1.932075-2.898113 3.864151-4.830189 5.796227l-4.830188 5.796226c-2.898113 3.864151-6.762264 8.69434-9.660378 12.558491-0.966038 0-1.932075-0.966038-2.898113-0.966038l-22.218868-8.69434c0-1.932075 3.864151-5.796226 4.830189-6.762264 2.898113-3.864151 17.388679-22.218868 21.25283-27.049057l2.898113-2.898113c14.490566-16.422642 24.150943-25.116981 40.573585-37.675471 1.932075-1.932075 3.864151-3.864151 6.762264-4.830189l14.490566-9.660377c9.660377-6.762264 19.320755-12.558491 29.94717-17.38868 0.966038-0.966038 2.898113-1.932075 3.864151-1.932075 1.932075-0.966038 2.898113 0 4.830189-1.932076l3.864151-1.932075c25.116981-10.626415 41.539623-16.422642 70.520754-21.25283 13.524528-1.932075 29.94717-3.864151 44.437736-3.864151 13.524528 0 27.049057 0.966038 39.607547 2.898113 1.932075 0 3.864151 0.966038 5.796227 0.966038-0.966038-0.966038-8.69434 23.184906-9.660378 25.116981zM287.879245 539.049057c0.966038 0.966038 0.966038 0.966038 0.966038 2.898113 0.966038 6.762264 3.864151 20.286792 5.796226 27.049056 7.728302 27.049057 15.456604 44.437736 31.879246 68.58868 0.966038 1.932075 2.898113 3.864151 3.864151 5.796226-0.966038 0-1.932075-1.932075-2.898114-1.932075-4.830189-3.864151-9.660377-8.69434-15.456603-12.558491-1.932075-1.932075-3.864151-2.898113-6.762264-4.830189l-13.524529-8.694339c-1.932075-1.932075-4.830189-2.898113-6.762264-3.864151-1.932075-0.966038-5.796226-3.864151-7.728302-3.864151 0-1.932075 2.898113-13.524528 3.864151-15.456604 0.966038-5.796226 1.932075-10.626415 2.898113-16.422641 1.932075-10.626415 3.864151-27.049057 3.864151-36.709434z m619.230189 60.860377c-2.898113 0-5.796226-0.966038-8.69434-0.966038 0-11.592453 8.69434-50.233962 11.592453-60.860377l6.762264-17.388679v5.796226l-0.966037 14.490566c-0.966038 6.762264-0.966038 13.524528-1.932076 20.286793-0.966038 6.762264-1.932075 12.558491-2.898113 19.320754-0.966038 2.898113-2.898113 17.388679-3.864151 19.320755z m-598.943396-87.909434v-11.592453l0.966037-11.592453c2.898113-24.150943 8.69434-40.573585 18.354717-62.792452l6.762265-12.558491c2.898113-5.796226 5.796226-10.626415 9.660377-15.456604 1.932075-2.898113 2.898113-4.830189 4.830189-6.762264 5.796226-7.728302 8.69434-10.626415 14.490566-16.422641l2.898113-3.864151c8.69434-8.69434 16.422642-14.490566 27.049056-22.218868 3.864151-2.898113 14.490566-9.660377 19.320755-11.592453 1.932075-0.966038 2.898113-1.932075 3.864151-1.932076 9.660377-4.830189 16.422642-7.728302 26.083019-11.592452 20.286792-7.728302 46.369811-11.592453 69.554717-11.592453 23.184906 0 49.267925 5.796226 70.520755 14.490566 14.490566 5.796226 27.049057 12.558491 39.607547 21.25283l10.626415 7.728302c5.796226 3.864151 19.320755 17.388679 23.184906 22.218868l2.898113 2.898113c7.728302 8.69434 15.456604 20.286792 22.218868 29.94717 4.830189 7.728302 8.69434 16.422642 12.55849 24.150943 0.966038 2.898113 2.898113 5.796226 3.864151 8.69434 1.932075 5.796226 3.864151 12.558491 5.796227 18.354717 8.69434 33.811321 8.69434 66.656604 0 100.467924-5.796226 25.116981-20.286792 54.098113-36.709434 73.418868l-8.69434 9.660378-2.898113 2.898113c-12.558491 12.558491-24.150943 24.150943-39.607547 32.845283l-24.150944 12.55849c-2.898113 0.966038-5.796226 2.898113-8.694339 3.864151-7.728302 2.898113-19.320755 6.762264-28.015095 8.69434-6.762264 0.966038-13.524528 2.898113-20.286792 3.864151-35.743396 3.864151-67.622642 0-100.467925-12.558491l-8.694339-3.864151c-14.490566-6.762264-26.083019-13.524528-38.64151-23.184905l-9.660377-8.69434c-0.966038-0.966038-0.966038-0.966038-1.932075-0.966038l-8.69434-7.728302-2.898113-2.898113-4.830189-4.830188c-2.898113-3.864151-5.796226-5.796226-9.660377-11.592453l-4.830189-7.728302c-16.422642-25.116981-27.049057-49.267925-32.845283-79.215095-0.966038-3.864151-0.966038-6.762264-1.932076-10.626415 0-7.728302-0.966038-16.422642-0.966037-24.150943zM137.177358 660.769811L125.584906 626.958491c-3.864151-14.490566-3.864151-10.626415 1.932075-22.218868 0.966038-1.932075 1.932075-2.898113 1.932076-4.830189 11.592453-23.184906 18.354717-47.335849 24.150943-72.45283 2.898113-10.626415 6.762264-40.573585 6.762264-52.166038l15.456604-3.864151c0.966038 0 3.864151-0.966038 5.796226-0.966038 2.898113 12.558491 1.932075 48.301887 0 60.860378-1.932075 13.524528-2.898113 19.320755-5.796226 31.879245-0.966038 2.898113-1.932075 6.762264-2.898113 9.660377-3.864151 13.524528-6.762264 24.150943-12.558491 37.675472-4.830189 12.558491-7.728302 18.354717-13.524528 29.94717l-10.626415 18.354717c1.932075 0.966038 1.932075 0.966038 0.966037 1.932075z m744.815095-63.75849h-14.490566c0-19.320755 2.898113-50.233962 7.728302-68.588679 4.830189-20.286792 6.762264-28.015094 13.524528-48.301887 0.966038-2.898113 1.932075-5.796226 3.864151-8.69434 2.898113-5.796226 6.762264-15.456604 9.660377-21.25283 0.966038-1.932075 5.796226-10.626415 6.762264-12.558491 0 1.932075 0.966038 3.864151 0.966038 4.830189 1.932075 9.660377 2.898113 17.388679 3.864151 27.049057 0.966038 3.864151 0.966038 7.728302 0.966038 11.592452v5.796227c0.966038 6.762264 0 1.932075-6.762264 12.55849-12.558491 19.320755-20.286792 53.132075-24.150944 76.316982 0.966038 2.898113-1.932075 17.388679-1.932075 21.25283zM115.924528 594.113208l-4.830188-32.845283c0-0.966038 0-0.966038 0.966037-2.898114 5.796226-8.69434 12.558491-35.743396 14.490566-46.369811 0.966038-4.830189 1.932075-9.660377 1.932076-15.456604 0-2.898113 0-5.796226 0.966038-7.728302l0.966037-8.694339c4.830189 0 12.558491-1.932075 16.422642-1.932076 0 5.796226-0.966038 11.592453-1.932076 16.422642-1.932075 12.558491-5.796226 33.811321-8.694339 45.403773-4.830189 17.388679-9.660377 29.94717-16.422642 46.369812-1.932075 2.898113-2.898113 6.762264-3.864151 7.728302z m83.079246-128.483019c0.966038-0.966038 3.864151-0.966038 4.830188-1.932076l15.456604-5.796226c0.966038 3.864151 1.932075 10.626415 1.932076 14.490566 1.932075 16.422642 3.864151 30.913208 3.86415 48.301887 0 4.830189 0 27.049057-0.966037 32.845283-0.966038 3.864151-0.966038 9.660377-0.966038 13.524528-1.932075 14.490566-2.898113 23.184906-6.762264 37.675472l-2.898113 11.592452c-3.864151 12.558491-7.728302 22.218868-13.524529 34.777359l-6.762264 12.558491c-0.966038 1.932075-1.932075 2.898113-2.898113 4.830188-4.830189 7.728302-15.456604 22.218868-22.218868 28.981132-1.932075 1.932075-9.660377 9.660377-11.592453 10.626415 0-1.932075-5.796226-10.626415-6.762264-13.524528-7.728302-16.422642-7.728302-12.558491-3.864151-18.354717 27.049057-40.573585 43.471698-84.045283 50.233962-133.313207l2.898114-33.811321c0.966038-4.830189 0-31.879245-0.966038-37.675472 0.966038-1.932075 0.966038-4.830189 0.966038-5.796226z m36.709434-15.456604c1.932075 0 4.830189-1.932075 6.762264-2.898113 5.796226-2.898113 11.592453-5.796226 17.388679-9.660378 0.966038-0.966038 1.932075-1.932075 3.864151-1.932075 0 0.966038 0.966038 3.864151 0.966038 4.830189l1.932075 14.490566c0.966038 5.796226 1.932075 13.524528 1.932076 20.286792 0 6.762264 1.932075 13.524528 1.932075 20.286792v4.830189c0 36.709434 0.966038 45.403774-4.830189 82.113208-2.898113 20.286792-9.660377 40.573585-16.422641 58.928302-5.796226 14.490566-13.524528 30.913208-20.286793 44.437735l-14.490566 23.184906-7.728302 11.592453c-1.932075 1.932075-2.898113 3.864151-3.86415 5.796226-2.898113 3.864151-14.490566 18.354717-17.38868 20.286793L173.886792 732.256604c-0.966038-0.966038-0.966038-1.932075-1.932075-2.898113l-4.830189-6.762265 8.69434-7.728301c4.830189-3.864151 11.592453-11.592453 16.422641-16.422642l3.864151-4.830189c5.796226-7.728302 11.592453-16.422642 16.422642-25.116981 1.932075-3.864151 3.864151-6.762264 5.796226-10.626415 1.932075-3.864151 3.864151-7.728302 4.830189-11.592453 21.25283-51.2 23.184906-98.535849 18.354717-154.566037-0.966038-9.660377-1.932075-21.25283-3.864151-30.913208-0.966038-2.898113-1.932075-7.728302-1.932075-10.626415z m616.332075 142.007547v3.864151h-7.728302c-1.932075 0-9.660377 0-12.55849 0.966038-1.932075 0-4.830189 0.966038-5.796227 0.966037l-0.966038-17.388679v-3.864151-13.524528l0.966038-17.388679c0.966038-5.796226 0.966038-11.592453 1.932076-16.422642 2.898113-22.218868 6.762264-39.607547 12.55849-59.894339 2.898113-7.728302 8.69434-25.116981 12.558491-32.845283 3.864151-7.728302 7.728302-15.456604 12.55849-24.150944 5.796226-9.660377 15.456604-23.184906 23.184906-30.913207 1.932075-1.932075 2.898113-3.864151 4.830189-4.830189 0.966038 2.898113 5.796226 16.422642 5.796226 18.354717 0.966038 2.898113 4.830189 17.388679 4.830189 19.320755 0 0.966038-4.830189 6.762264-5.796227 8.694339-5.796226 8.69434-10.626415 17.388679-15.456603 28.015095-4.830189 10.626415-12.558491 30.913208-15.456604 41.539622l-2.898113 10.626415c-2.898113 8.69434-5.796226 26.083019-7.728302 35.743397-0.966038 5.796226-2.898113 20.286792-2.898114 25.116981 0 9.660377-1.932075 18.354717-1.932075 28.015094zM288.845283 486.883019c0-14.490566-4.830189-31.879245-6.762264-46.369811l-2.898113-14.490566c7.728302-5.796226 12.558491-8.69434 20.286792-14.490567l5.796227-4.830188c0.966038-0.966038 1.932075-0.966038 2.898113-1.932076 0.966038 0 0.966038-0.966038 0.966037-0.966037 0.966038-0.966038 0.966038-0.966038 1.932076-0.966038l7.728302-6.762264c1.932075-1.932075 3.864151-2.898113 4.830189-4.830189v0.966038s0 0.966038-0.966038 0.966037c-4.830189 7.728302-5.796226 8.69434-10.626415 18.354717-3.864151 7.728302-6.762264 14.490566-9.660378 22.218868-5.796226 14.490566-9.660377 29.94717-11.592453 45.403774-1.932075 2.898113-1.932075 4.830189-1.932075 7.728302z m403.803774-98.535849c0.966038-0.966038 0 0 2.898113 1.932075l17.388679 16.422642 2.898113 2.898113 26.083019 19.320755-3.864151 12.55849c-0.966038 4.830189-1.932075 8.69434-3.864151 13.524529-0.966038 3.864151-5.796226 23.184906-5.796226 27.049056l-1.932076-13.524528c-2.898113-16.422642-8.69434-33.811321-15.456603-49.267925-2.898113-6.762264-6.762264-15.456604-11.592453-21.25283-0.966038-0.966038-6.762264-9.660377-6.762264-9.660377z m115.924528 181.615094v21.25283l0.966038 8.69434c-3.864151 0-14.490566 2.898113-18.354717 3.864151-2.898113 0.966038-4.830189 1.932075-5.796227 0.966038-0.966038-0.966038-1.932075-52.166038-0.966037-60.860378 0.966038-6.762264 0.966038-16.422642 1.932075-23.184905l0.966038-13.524529c2.898113-19.320755 4.830189-31.879245 9.660377-51.2 6.762264-28.981132 17.388679-53.132075 32.845283-78.249056 0.966038-1.932075 2.898113-3.864151 3.864151-5.796227l8.69434-11.592453c10.626415-12.558491 10.626415-12.558491 22.218868-23.184905 0.966038-0.966038 6.762264-6.762264 8.694339-6.762264 0 0.966038 14.490566 29.94717 14.490566 31.879245 0 0.966038-2.898113 3.864151-3.864151 4.830189l-4.830188 4.830188-8.69434 9.660378c-10.626415 11.592453-21.25283 29.94717-28.015094 43.471698-3.864151 7.728302-7.728302 16.422642-10.626415 25.116981-1.932075 3.864151-2.898113 8.69434-4.830189 13.524528-4.830189 14.490566-7.728302 28.015094-10.626415 43.471698-1.932075 10.626415-2.898113 21.25283-4.830189 31.879246-0.966038 5.796226-0.966038 10.626415-0.966038 16.422641-1.932075 2.898113-1.932075 8.69434-1.932075 14.490566zM535.184906 291.743396c3.864151 0 14.490566-1.932075 19.320754-1.932075 5.796226-0.966038 12.558491-1.932075 18.354717-2.898113 6.762264-0.966038 11.592453-1.932075 18.354717-3.864151 5.796226-0.966038 11.592453-2.898113 17.38868-3.864151 8.69434 16.422642 29.94717 49.267925 41.539622 62.792452-0.966038 0.966038 0 0-0.966038-0.966037l-10.626415-7.728302c-13.524528-9.660377-14.490566-9.660377-28.981132-17.388679l-6.762264-3.864151c-0.966038-0.966038-1.932075-0.966038-3.864151-1.932076-2.898113-0.966038-4.830189-1.932075-6.762264-2.898113-16.422642-6.762264-30.913208-10.626415-48.301887-13.524528-1.932075-0.966038-6.762264-1.932075-8.694339-1.932076z m233.781132 264.69434v37.675472l0.966037 14.490566c-4.830189 0.966038-23.184906 7.728302-27.049056 9.660377-1.932075 0.966038-1.932075 1.932075-2.898113-7.728302-6.762264-77.283019 0.966038-142.973585 29.947169-209.630189 11.592453-26.083019 19.320755-39.607547 34.777359-61.826415 6.762264-10.626415 20.286792-27.049057 29.94717-36.709434l3.864151-3.864151 0.966037-0.966037 11.592453-10.626415c0 0.966038 4.830189 7.728302 5.796227 9.660377l9.660377 16.422641c-0.966038 0-1.932075 0.966038-2.898113 1.932076-0.966038 0.966038-1.932075 1.932075-2.898113 1.932075-0.966038 0.966038-1.932075 1.932075-2.898114 1.932076-5.796226 4.830189-15.456604 14.490566-19.320754 19.320755-3.864151 4.830189-8.69434 10.626415-12.558491 16.422641l-8.694339 12.558491c-0.966038 1.932075-2.898113 4.830189-3.864151 6.762264-0.966038 2.898113-2.898113 3.864151-3.864151 6.762264-13.524528 27.049057-17.388679 37.675472-26.083019 68.588679-4.830189 16.422642-9.660377 47.335849-10.626415 63.758491l-3.864151 28.015094v15.456604zM365.162264 342.943396c0-0.966038 9.660377-13.524528 9.660378-14.490566 7.728302-11.592453 9.660377-16.422642 15.456603-27.049056l1.932076-3.864151 7.728302-16.422642c2.898113 1.932075 33.811321 6.762264 36.709434 6.762264 9.660377 1.932075 29.94717 3.864151 39.607547 3.864151-0.966038 0.966038 0.966038 0-3.864151 0.966038-9.660377 1.932075-20.286792 3.864151-28.981132 6.762264-25.116981 7.728302-40.573585 15.456604-61.826415 29.94717l-16.422642 13.524528zM111.09434 467.562264c0-5.796226 0.966038-11.592453 1.932075-17.388679l2.898113-16.422642c5.796226 0 17.388679-1.932075 23.184906-2.898113 25.116981-3.864151 37.675472-8.69434 60.860377-16.422641 5.796226-1.932075 11.592453-4.830189 18.354717-7.728302l21.25283-10.626415c10.626415-5.796226 25.116981-15.456604 34.777359-23.184906l21.25283-17.388679c1.932075-0.966038 1.932075-1.932075 3.864151-2.898113 0.966038-0.966038 1.932075-1.932075 3.864151-2.898114l6.762264-6.762264c1.932075-1.932075 12.558491-13.524528 15.456604-16.422641l14.490566-17.38868c8.69434-11.592453 13.524528-17.388679 21.25283-30.913207l4.830189-7.728302 14.490566 4.830189c0.966038 0 3.864151 0.966038 5.796226 1.932075 0 1.932075-3.864151 7.728302-4.830188 9.660378-0.966038 1.932075-1.932075 2.898113-2.898114 4.830188l-7.728301 13.524529c-7.728302 12.558491-20.286792 31.879245-29.94717 42.50566-0.966038 0.966038-1.932075 2.898113-2.898113 3.864151l-2.898114 3.864151c-3.864151 3.864151-9.660377 10.626415-13.524528 15.456604L303.335849 386.415094c-8.69434 6.762264-12.558491 10.626415-22.218868 18.354717l-8.694339 5.796227c-6.762264 4.830189-14.490566 9.660377-22.218868 14.490566-4.830189 2.898113-19.320755 10.626415-24.150944 12.55849-3.864151 1.932075-6.762264 2.898113-9.660377 4.830189l-21.25283 7.728302c-27.049057 8.69434-48.301887 13.524528-77.283019 17.388679-1.932075-0.966038-4.830189 0-6.762264 0z m7.728302-49.267924c0-1.932075 5.796226-22.218868 6.762264-24.150944 11.592453-2.898113 22.218868-4.830189 34.777358-8.694339 13.524528-3.864151 27.049057-8.69434 39.607547-14.490566l7.728302-2.898114c4.830189-1.932075 9.660377-4.830189 14.490566-6.762264l13.524529-7.728302c13.524528-8.69434 25.116981-16.422642 37.675471-27.049056 2.898113-1.932075 16.422642-14.490566 19.320755-18.354717l22.218868-26.083019c4.830189-6.762264 8.69434-12.558491 12.55849-19.320755 0.966038-0.966038 0.966038-1.932075 1.932076-2.898113 0.966038-0.966038 1.932075-1.932075 1.932075-3.864151 2.898113 1.932075 6.762264 2.898113 9.660378 4.830189 2.898113 1.932075 6.762264 2.898113 9.660377 4.830188-1.932075 1.932075-2.898113 4.830189-4.830189 7.728302-4.830189 7.728302-9.660377 14.490566-14.490566 21.25283l-2.898113 2.898114c-0.966038 0.966038-1.932075 1.932075-2.898113 3.864151-0.966038 0.966038-1.932075 1.932075-2.898113 3.864151-4.830189 5.796226-14.490566 17.388679-19.320755 22.218867l-18.354717 17.38868c-8.69434 8.69434-17.388679 14.490566-27.049057 21.25283l-14.490566 9.660377c-6.762264 3.864151-12.558491 7.728302-19.320754 10.626415-0.966038 0-1.932075 0-2.898113 0.966038-8.69434 4.830189-32.845283 14.490566-42.505661 17.388679l-8.694339 2.898114c-10.626415 3.864151-28.015094 6.762264-39.607548 8.694339-1.932075 0-11.592453 0.966038-11.592452 1.932076z m78.249056-156.498114l16.422642-20.286792 1.932075-1.932076 20.286793-21.25283 1.932075-1.932075 9.660377-8.69434c0.966038-0.966038 7.728302-5.796226 8.69434-6.762264l6.762264 6.762264c-2.898113 4.830189-9.660377 12.558491-13.524528 16.422642-14.490566 14.490566-24.150943 22.218868-42.505661 32.845283-0.966038 0.966038-1.932075 0.966038-2.898113 0.966037-0.966038 0.966038-0.966038 0.966038-2.898113 0.966038l-3.864151 2.898113z m-65.690566 113.026416c0.966038-2.898113 12.558491-30.913208 13.524528-33.811321 0.966038-0.966038 0.966038-0.966038 2.898114-1.932076 5.796226-0.966038 12.558491-3.864151 18.354717-5.796226 28.015094-9.660377 56.996226-25.116981 80.181132-43.471698l7.728302-6.762264c0.966038-0.966038 1.932075-0.966038 2.898113-1.932076l9.660377-9.660377 4.830189-4.830189 1.932075-1.932075 6.762264-7.728302c4.830189-5.796226 11.592453-16.422642 15.456604-22.218868l14.490566 9.660377c1.932075 0.966038 3.864151 1.932075 4.830189 2.898113l-11.592453 17.38868c-14.490566 18.354717-24.150943 29.94717-41.539623 45.403773-7.728302 6.762264-19.320755 15.456604-27.049056 21.25283-1.932075 0.966038-3.864151 2.898113-5.796227 3.864151-11.592453 7.728302-19.320755 11.592453-30.913207 17.38868-15.456604 7.728302-32.845283 13.524528-50.233962 18.354717-2.898113 0.966038-4.830189 0.966038-7.728302 1.932075-1.932075 0.966038-5.796226 1.932075-8.69434 1.932076z m23.184906-53.132076l9.660377-17.388679c0.966038-1.932075 9.660377-16.422642 10.626415-17.388679l10.626415-2.898114c18.354717-5.796226 38.641509-16.422642 54.098113-28.981132l22.218868-20.286792c1.932075-1.932075 4.830189-4.830189 6.762265-7.728302 1.932075-2.898113 3.864151-4.830189 5.796226-7.728302l8.69434 6.762264c-0.966038 1.932075-1.932075 2.898113-2.898114 3.864151l-17.388679 24.150944c-2.898113 2.898113-6.762264 7.728302-9.660377 10.626415l-5.796227 4.830188c-6.762264 6.762264-18.354717 14.490566-26.083018 20.286793l-3.864151 2.898113c-1.932075 0.966038-2.898113 1.932075-4.830189 2.898113-0.966038 0.966038-2.898113 1.932075-3.864151 2.898113-1.932075 0.966038-2.898113 1.932075-4.830189 2.898114-10.626415 4.830189-16.422642 8.69434-28.981132 13.524528-2.898113 0.966038-17.388679 6.762264-20.286792 6.762264z m617.298113-119.788679c0.966038-0.966038 0-0.966038 2.898113 1.932075l9.660378 7.728302c3.864151 2.898113 27.049057 26.083019 28.981132 28.981132 2.898113 3.864151 8.69434 9.660377 12.55849 14.490566l11.592453 14.490566c0.966038 1.932075 2.898113 3.864151 3.864151 4.830189-0.966038 0.966038-3.864151 3.864151-5.796226 4.830189l-8.69434 8.694339c-6.762264-5.796226-12.558491-13.524528-19.320755-20.286792-0.966038-0.966038-0.966038-1.932075-1.932075-2.898113-8.69434-10.626415-10.626415-15.456604-17.38868-26.083019l-8.694339-17.388679c-2.898113-6.762264-3.864151-10.626415-5.796227-18.354717-1.932075 0.966038-1.932075 0-1.932075-0.966038z m-502.339623-10.626415c0.966038-0.966038 0.966038-1.932075 2.898114-2.898114 6.762264-5.796226 12.558491-10.626415 21.25283-15.456603 1.932075 2.898113 5.796226 6.762264 8.694339 9.660377l1.932076 1.932076 11.592453 10.626415c1.932075 0.966038 2.898113 2.898113 4.830188 3.864151 3.864151 2.898113 6.762264 4.830189 10.626415 7.728301 1.932075 0.966038 2.898113 1.932075 4.830189 3.864151 11.592453 7.728302 28.015094 16.422642 40.573585 22.218868 57.962264 26.083019 118.822642 29.94717 181.615094 19.320755 3.864151-0.966038 7.728302-1.932075 10.626415-1.932075 2.898113-0.966038 19.320755-4.830189 21.252831-4.830189 0 1.932075 0.966038 2.898113 1.932075 4.830189 0.966038 2.898113 5.796226 12.558491 6.762264 14.490566l-22.218868 4.830188c-3.864151 0.966038-7.728302 1.932075-11.592453 1.932076l-23.184905 3.864151c-12.558491 0.966038-46.369811 3.864151-56.996227 1.932075-1.932075 0-14.490566 0-18.354717-0.966038-2.898113 0-5.796226 0-9.660377-0.966037-26.083019-2.898113-39.607547-4.830189-65.690566-12.558491-21.25283-5.796226-26.083019-8.69434-42.50566-15.456604-1.932075-0.966038-3.864151-1.932075-6.762265-2.898113-22.218868-10.626415-33.811321-18.354717-54.098113-33.811321l-15.456603-13.524528c0.966038-1.932075-1.932075-4.830189-2.898114-5.796226z m36.709434-27.049057c0.966038-0.966038 9.660377-5.796226 11.592453-6.762264 17.388679-8.69434 8.69434-9.660377 24.150943 2.898113l12.558491 8.69434 8.69434 5.796226c6.762264 4.830189 20.286792 11.592453 28.015094 14.490566 24.150943 9.660377 53.132075 18.354717 79.215094 19.320755l12.558491 0.966038c30.913208 0 42.50566 0.966038 75.350943-3.864151l15.456604-2.898113c0.966038 0 0.966038 1.932075 0.966038 2.898113l8.694339 24.150943c-0.966038 0-2.898113 0.966038-4.830188 0.966038-12.558491 2.898113-41.539623 8.69434-54.098113 8.694339-6.762264 0-13.524528 0.966038-21.252831 0.966038-28.015094 0-45.403774-0.966038-72.45283-6.762264-11.592453-2.898113-26.083019-6.762264-37.675472-11.592453-13.524528-4.830189-16.422642-6.762264-28.015094-12.55849-17.388679-8.69434-30.913208-19.320755-46.369811-30.913208L306.233962 164.226415z m405.735849-3.864151c3.864151 1.932075 6.762264 3.864151 10.626415 5.796227 8.69434 4.830189 17.388679 10.626415 25.116982 16.422641 1.932075 0.966038 2.898113 2.898113 4.830188 3.864151 0 4.830189 1.932075 13.524528 2.898113 18.354717 1.932075 9.660377 6.762264 23.184906 11.592453 31.879245 6.762264 14.490566 8.69434 15.456604 16.422642 28.015095 3.864151 5.796226 8.69434 11.592453 13.524528 16.422641l14.490566 15.456604c0.966038 0.966038 1.932075 0.966038 2.898113 2.898113l-8.694339 9.660377c-3.864151-1.932075-15.456604-14.490566-19.320755-19.320754-2.898113-2.898113-7.728302-8.69434-10.626415-12.558491l-6.762264-6.762264c-0.966038-1.932075-1.932075-2.898113-2.898113-3.864151l-15.456604-22.218868c-0.966038-1.932075-1.932075-2.898113-2.898113-4.830189-6.762264-11.592453-10.626415-17.388679-16.422642-28.981132-4.830189-9.660377-18.354717-41.539623-19.320755-50.233962zM347.773585 142.007547c4.830189-2.898113 26.083019-10.626415 28.981132-10.626415l5.796226 4.830189c10.626415 7.728302 23.184906 14.490566 35.743397 20.286792 17.388679 6.762264 32.845283 11.592453 52.166037 14.490566 6.762264 0.966038 14.490566 0.966038 20.286793 1.932076h4.830188c7.728302 0.966038 26.083019 0.966038 33.811321 0l10.626415-0.966038c3.864151-0.966038 8.69434-0.966038 13.524529-0.966038 1.932075 0 3.864151-0.966038 6.762264-0.966037 1.932075 0 3.864151-0.966038 6.762264-0.966038 0 2.898113 0.966038 5.796226 1.932075 8.694339 0.966038 2.898113 1.932075 5.796226 1.932076 8.69434l-14.490566 2.898113c-14.490566 2.898113-28.981132 3.864151-44.437736 3.864151H481.086792c-15.456604-0.966038-37.675472-4.830189-52.166037-8.694339-11.592453-2.898113-28.015094-9.660377-38.64151-14.490566-12.558491-5.796226-22.218868-11.592453-32.845283-19.320755-1.932075-1.932075-8.69434-6.762264-9.660377-8.69434z m312.996226-5.796226c2.898113 0 29.94717 12.558491 30.913208 13.524528 0 0.966038 0.966038 2.898113 0.966038 3.864151 2.898113 14.490566 7.728302 28.015094 13.524528 41.539623 4.830189 12.558491 11.592453 27.049057 18.354717 37.675471 10.626415 18.354717 19.320755 30.913208 32.845283 48.301887l23.184906 27.049057 15.456603 14.490566-13.524528 20.286792c-0.966038-0.966038-1.932075-0.966038-2.898113-1.932075L766.067925 328.45283c-1.932075-1.932075-3.864151-2.898113-4.830189-4.830188l-12.558491-13.524529c-5.796226-5.796226-19.320755-24.150943-25.116981-30.913207-1.932075-1.932075-2.898113-3.864151-3.864151-5.796227-0.966038-0.966038-0.966038-1.932075-1.932075-2.898113l-13.524529-22.218868c-0.966038-1.932075-1.932075-4.830189-3.864151-6.762264l-15.456603-30.913208c-1.932075-5.796226-5.796226-12.558491-7.728302-18.354717-2.898113-8.69434-4.830189-13.524528-7.728302-23.184905-1.932075-5.796226-2.898113-10.626415-3.864151-16.422642l-4.830189-16.422641z m-265.660377-11.592453c0.966038-0.966038 3.864151-0.966038 4.830189-1.932076l26.083019-6.762264c1.932075 0 3.864151-0.966038 5.796226-0.966037l3.864151-0.966038c1.932075 0 4.830189 2.898113 8.694339 5.796226 18.354717 13.524528 45.403774 21.25283 67.622642 24.150944 4.830189 0.966038 13.524528 1.932075 18.354717 1.932075h6.762264c6.762264 0.966038 19.320755-0.966038 25.116981-0.966038 0 1.932075 0.966038 3.864151 0.966038 5.796227 0.966038 2.898113 0.966038 2.898113-2.898113 2.898113-5.796226 0.966038-9.660377 0.966038-13.524529 1.932075-1.932075 0-3.864151 0-6.762264 0.966038-6.762264 0-12.558491 0.966038-20.286792 0.966038-23.184906 0-39.607547 0-62.792453-5.796226-12.558491-2.898113-28.981132-7.728302-40.573585-13.524529l-11.592453-5.796226c-0.966038-1.932075-8.69434-6.762264-9.660377-7.728302z m221.222641-3.864151c2.898113 0.966038 6.762264 1.932075 9.660378 2.898113l14.490566 3.864151c3.864151 0.966038 3.864151 0.966038 3.864151 1.932076l1.932075 10.626415c0.966038 6.762264 2.898113 13.524528 3.864151 20.286792 2.898113 10.626415 4.830189 18.354717 8.69434 28.981132 4.830189 14.490566 11.592453 29.94717 18.354717 43.471698 0.966038 2.898113 2.898113 5.796226 3.864151 7.728302 0.966038 2.898113 2.898113 4.830189 4.830188 7.728302 6.762264 14.490566 21.25283 34.777358 31.879246 48.301887 0.966038 0.966038 1.932075 1.932075 2.898113 3.864151 5.796226 7.728302 12.558491 14.490566 16.422641 20.286792 4.830189 6.762264 15.456604 15.456604 21.252831 22.218868 1.932075 1.932075 15.456604 13.524528 16.422641 14.490566l-9.660377 18.354717c-1.932075-0.966038-12.558491-9.660377-13.524529-10.626415-2.898113-1.932075-4.830189-3.864151-6.762264-5.796226-0.966038-0.966038-0.966038-0.966038-1.932075-0.966038l-14.490566-13.524528-1.932076-1.932076-1.932075-1.932075c-0.966038-0.966038-0.966038-0.966038-0.966038-1.932076l-10.626415-11.592453-2.898113-2.898113c-0.966038-0.966038-1.932075-1.932075-2.898113-3.864151l-2.898114-2.898113c-0.966038-0.966038-1.932075-1.932075-2.898113-3.864151-13.524528-15.456604-26.083019-33.811321-35.743396-52.166038-6.762264-12.558491-15.456604-28.981132-21.25283-41.539622-3.864151-9.660377-6.762264-17.388679-10.626415-27.049057-0.966038-2.898113-1.932075-6.762264-2.898113-9.660377-1.932075-5.796226-3.864151-13.524528-5.796227-19.320755-4.830189-14.490566-6.762264-28.015094-8.69434-43.471698z m-44.437735-7.728302c3.864151 0 25.116981 3.864151 28.015094 5.796227 0 15.456604 7.728302 52.166038 12.558491 67.622641 1.932075 6.762264 3.864151 13.524528 6.762264 20.286792 4.830189 12.558491 9.660377 26.083019 15.456603 37.675472 6.762264 13.524528 10.626415 21.25283 19.320755 34.777359 11.592453 19.320755 29.94717 43.471698 46.369811 60.860377l2.898114 2.898113c5.796226 6.762264 11.592453 12.558491 18.354717 18.354717l30.913207 26.083019c0.966038 0.966038 2.898113 1.932075 3.864151 2.898113 0 1.932075-8.69434 19.320755-8.694339 22.218868-1.932075-0.966038-14.490566-10.626415-16.422642-12.55849-4.830189-3.864151-15.456604-12.558491-20.286792-17.38868l-36.709434-37.675471c-4.830189-4.830189-18.354717-23.184906-23.184906-28.981132-10.626415-14.490566-26.083019-38.641509-33.811321-55.064151-5.796226-10.626415-9.660377-19.320755-14.490566-29.94717l-3.864151-10.626415c-13.524528-34.777358-20.286792-63.758491-25.116981-100.467925-0.966038-1.932075-0.966038-5.796226-1.932075-6.762264z m-112.060378-1.932075l9.660378-1.932076c3.864151-0.966038 7.728302-0.966038 11.592452-0.966038 24.150943-1.932075 43.471698-1.932075 67.622642 0 1.932075 0 4.830189 0 6.762264 0.966038 1.932075 0 0.966038 0 1.932076 5.796227 0 4.830189 1.932075 8.69434 1.932075 13.524528h-5.796226c-10.626415 0.966038-28.981132 0-38.64151-0.966038-11.592453-0.966038-27.049057-4.830189-37.675471-8.694339-2.898113-0.966038-5.796226-1.932075-8.69434-3.864151-2.898113 0-8.69434-2.898113-8.69434-3.864151z" fill="#B29873" p-id="11778"></path><path d="M512 53.132075C258.898113 53.132075 53.132075 258.898113 53.132075 512s205.766038 458.867925 458.867925 458.867925 458.867925-205.766038 458.867925-458.867925S765.101887 53.132075 512 53.132075z m0 941.886793C245.373585 995.018868 28.981132 778.626415 28.981132 512S245.373585 28.981132 512 28.981132s483.018868 216.392453 483.018868 483.018868-216.392453 483.018868-483.018868 483.018868z" fill="#B29873" p-id="11779"></path></svg>